PathFileType	4	(X/Y/Z)	/Users/niels/Desktop/University/Third Semester/Perception and Action/Exam/Gymnastics Motion Tracking/Code for Gym Tracking/Analyzed Data/Webcam_Backflip/id8_4_pure_Sports2D/id8_4_pure_Sports2D_px_person00.trc
DataRate	CameraRate	NumFrames	NumMarkers	Units	OrigDataRate	OrigDataStartFrame	OrigNumFrames
29.81132075471698	29.81132075471698	7	22	m	29.81132075471698	99	159
Frame#	Time	Hip			RHip			RKnee			RAnkle			RBigToe			RSmallToe			RHeel			LHip			LKnee			LAnkle			LBigToe			LSmallToe			LHeel			Neck			Head			Nose			RShoulder			RElbow			RWrist			LShoulder			LElbow			LWrist		
		X1	Y1	Z1	X2	Y2	Z2	X3	Y3	Z3	X4	Y4	Z4	X5	Y5	Z5	X6	Y6	Z6	X7	Y7	Z7	X8	Y8	Z8	X9	Y9	Z9	X10	Y10	Z10	X11	Y11	Z11	X12	Y12	Z12	X13	Y13	Z13	X14	Y14	Z14	X15	Y15	Z15	X16	Y16	Z16	X17	Y17	Z17	X18	Y18	Z18	X19	Y19	Z19	X20	Y20	Z20	X21	Y21	Z21	X22	Y22	Z22
99	3.320886075949367	0.9637480425307218	-0.593150853352865	0.0	0.9586860633966814	-0.59361819539592	0.0	0.9467796680036232	-0.6846674923840593	0.0	0.9229605787561267	-0.7798857527740959	0.0	0.9617959385313004	-0.7992836096517847	0.0	0.9484381357280127	-0.801357556269704	0.0	0.9141519208277739	-0.7929442197598493	0.0	0.9702884807706167	-0.5918857825906227	0.0	0.97741747886154	-0.6808066249834615	0.0	0.9342167251183137	-0.7680309129343583	0.0	0.9682770578407948	-0.7925828792375392	0.0	0.9642158306029157	-0.7885371354095054	0.0	0.9254378426833132	-0.7815992541390278	0.0	0.9654452329630798	-0.4522051504056076	0.0	0.9789782350042526	-0.38772665872736717	0.0	0.9948962514143224	-0.4215259381433205	0.0	0.9581520385365491	-0.4697971570640531	0.0	0.9283700318645148	-0.5263654783882609	0.0	0.9172336447525684	-0.5843274629367227	0.0	0.9612797111650733	-0.469120347043697	0.0	0.9405246080878321	-0.5244423059472352	0.0	0.9239703277602384	-0.5799446174056577	0.0
100	3.354430379746835	0.9655464378905114	-0.5841812569402242	0.0	0.9597471971648368	-0.5844845843195587	0.0	0.9472626123343991	-0.6762891143118593	0.0	0.9239506530806619	-0.7730302377630714	0.0	0.9628736381666119	-0.7931891836293807	0.0	0.9492545079160579	-0.7952644124886407	0.0	0.914993324240199	-0.7859283045122073	0.0	0.9731199068639272	-0.5830033642114306	0.0	0.9845660234374659	-0.67199773717585	0.0	0.9410557663579244	-0.7601645277673549	0.0	0.974264906880855	-0.7854174726066807	0.0	0.9709755741140338	-0.7812816066019114	0.0	0.9332332068287441	-0.7737816210035321	0.0	0.9673800476537432	-0.442994206799471	0.0	0.9813446188014947	-0.3790607461035438	0.0	0.9969425830868762	-0.4126585185884009	0.0	0.9598983267557208	-0.46061503651659386	0.0	0.9306338950411327	-0.5177817884049404	0.0	0.9221239522823682	-0.5764940202889226	0.0	0.9639979832804294	-0.460298219964174	0.0	0.9446171537994845	-0.5161093414255704	0.0	0.9343875229387318	-0.5721655046832342	0.0
101	3.3879746835443036	0.9671451836919912	-0.5759669795676128	0.0	0.9607648127748812	-0.5760419625807022	0.0	0.9480127639582843	-0.6689211411244611	0.0	0.925162806286167	-0.767043141308366	0.0	0.9633967523317054	-0.7881563686889266	0.0	0.9499163905778064	-0.7901306803063628	0.0	0.9160302622667376	-0.7799258171430007	0.0	0.9754906626619532	-0.57498729123702	0.0	0.9900598869764671	-0.6643611046077283	0.0	0.9501005253383961	-0.7542419355475323	0.0	0.9831043181714855	-0.7794739154124856	0.0	0.9807372317735725	-0.7752910631619766	0.0	0.9429559338875059	-0.7678577702440162	0.0	0.9693307195056635	-0.4346092687225688	0.0	0.983475775893229	-0.3711065844686465	0.0	0.9987272008456255	-0.4046394029497095	0.0	0.9613536425018058	-0.45253782781251917	0.0	0.9341889302349593	-0.5111137810405373	0.0	0.9296491461959238	-0.5706626002326617	0.0	0.9669646471097095	-0.4526056182088785	0.0	0.9499002047840774	-0.5095394458014391	0.0	0.9476649427019638	-0.5662390005235856	0.0
102	3.421518987341772	0.9685880373742396	-0.5692062431766295	0.0	0.9618230725815051	-0.5690019139920574	0.0	0.9491505852744141	-0.6631220625624554	0.0	0.9265134376663495	-0.7623747971597524	0.0	0.9633779590477806	-0.7845898774037082	0.0	0.9504522635157362	-0.786309883088102	0.0	0.9169942778582382	-0.7752876180415625	0.0	0.9774652138138694	-0.5684223962547045	0.0	0.9938061735148659	-0.6584105509917209	0.0	0.9612606853856285	-0.7506026813176334	0.0	0.9947998259085818	-0.7750927554000212	0.0	0.9932941537384656	-0.7709203882661184	0.0	0.9545041828680766	-0.7641383143522752	0.0	0.971264234630288	-0.42793400356026284	0.0	0.9852684345774738	-0.36462684161124204	0.0	1.000242861346389	-0.3983652266996336	0.0	0.9626233242311613	-0.4462896821950011	0.0	0.9388224651365124	-0.5066427401945365	0.0	0.9392263331175322	-0.5668338664144146	0.0	0.9698126682873215	-0.44675849591976746	0.0	0.9553429144891226	-0.5050402183259949	0.0	0.9604369426720281	-0.5620815515489418	0.0
103	3.4550632911392403	0.9699572445866322	-0.5642936610802926	0.0	0.9629987273720871	-0.5637636838690407	0.0	0.9506255098400833	-0.6592158502302393	0.0	0.9277966544666776	-0.7592633692304988	0.0	0.9628481266188478	-0.7826622822638739	0.0	0.9507777995209503	-0.783998422692159	0.0	0.9176689854967793	-0.7721673537982476	0.0	0.9791678990410602	-0.5635818091486339	0.0	0.9962220060855438	-0.654476016124051	0.0	0.974010142539939	-0.7490293957898665	0.0	1.0085224717127994	-0.7723735838258952	0.0	1.0076378993938262	-0.7682880947375101	0.0	0.96747339172559	-0.7624094047670888	0.0	0.9731073092096557	-0.4235531216610118	0.0	0.9866627850675236	-0.36020505163941297	0.0	1.0015271997303812	-0.3944547013015954	0.0	0.9638128948496641	-0.4423704162348584	0.0	0.9442887759404887	-0.5043788325890071	0.0	0.9501870004391659	-0.5646726940657952	0.0	0.9722453661696766	-0.44315894789250915	0.0	0.9601857238303866	-0.5025873905523761	0.0	0.9706955873570335	-0.5593314443546153	0.0
104	3.488607594936709	0.9713867292741426	-0.56147563558532	0.0	0.9643445288462722	-0.5606031198460534	0.0	0.9522142407948115	-0.6574443689808559	0.0	0.9287398316549464	-0.7578020974374524	0.0	0.9618240315343392	-0.7823225268785771	0.0	0.9506983489757532	-0.7832583107431419	0.0	0.9179431816018351	-0.7706198024605645	0.0	0.980829312620531	-0.5606482325647403	0.0	0.9979716740047895	-0.6528013721764309	0.0	0.9874408508512269	-0.7491176678877	0.0	1.0228458393894115	-0.7712630393971519	0.0	1.0222979438880784	-0.7673563608288526	0.0	0.9811386698547772	-0.762315964345782	0.0	0.9747954059853101	-0.42175191047658683	0.0	0.9877592704980577	-0.3582020707153471	0.0	1.0026550241726215	-0.39320198269718437	0.0	0.9649411528106857	-0.44103674334861975	0.0	0.9503625697688116	-0.5042469318447568	0.0	0.9619201811736325	-0.5638130660942795	0.0	0.9741994045002131	-0.4419215559274187	0.0	0.9644134500550539	-0.5020015628507621	0.0	0.9786799772868098	-0.5575246804685509	0.0
105	3.522151898734177	0.9730435121854369	-0.5609336553868953	0.0	0.9659091766716632	-0.559749710582704	0.0	0.9537207028172596	-0.6579428659464437	0.0	0.9291407168971458	-0.7580275289276208	0.0	0.960435255778162	-0.7834415776565378	0.0	0.9501269729781674	-0.7840838484644445	0.0	0.917792890907483	-0.7706842255598044	0.0	0.9827343834535721	-0.559805054397836	0.0	0.9996811122798641	-0.6534924375487299	0.0	1.0004608134371396	-0.7506359081577032	0.0	1.036182833212208	-0.7716991373555093	0.0	1.0357790308400912	-0.7680569411493252	0.0	0.9945338099665059	-0.7636893043622123	0.0	0.9763111478085601	-0.42255037640347853	0.0	0.9887285480323118	-0.35874930325795756	0.0	1.003722406169574	-0.39457567839797175	0.0	0.9659452490504812	-0.44228032994002286	0.0	0.9568647641084713	-0.5061632616382288	0.0	0.9739857100745458	-0.5640894656238893	0.0	0.9758397310949727	-0.4429759302926134	0.0	0.9686971492193105	-0.5030817923996694	0.0	0.9860700227848829	-0.556238002015129	0.0
